<svg xmlns="http://www.w3.org/2000/svg" version="1.1" xmlns:xlink="http://www.w3.org/1999/xlink" xmlns:svgjs="http://svgjs.dev/svgjs" viewBox="0 0 800 800"><g stroke-width="10" stroke="hsl(315, 90%, 34%)" fill="none" stroke-linecap="square"><line x1="54" y1="0" x2="0" y2="54"></line><line x1="54" y1="0" x2="108" y2="54"></line><line x1="162" y1="0" x2="108" y2="54"></line><line x1="162" y1="0" x2="216" y2="54"></line><line x1="216" y1="0" x2="270" y2="54"></line><line x1="324" y1="0" x2="270" y2="54"></line><line x1="378" y1="0" x2="324" y2="54"></line><line x1="378" y1="0" x2="432" y2="54"></line><line x1="432" y1="0" x2="486" y2="54"></line><line x1="540" y1="0" x2="486" y2="54"></line><line x1="540" y1="0" x2="594" y2="54"></line><line x1="594" y1="0" x2="648" y2="54"></line><line x1="702" y1="0" x2="648" y2="54"></line><line x1="756" y1="0" x2="702" y2="54"></line><line x1="756" y1="0" x2="810" y2="54"></line><line x1="54" y1="54" x2="0" y2="108"></line><line x1="54" y1="54" x2="108" y2="108"></line><line x1="108" y1="54" x2="162" y2="108"></line><line x1="162" y1="54" x2="216" y2="108"></line><line x1="216" y1="54" x2="270" y2="108"></line><line x1="270" y1="54" x2="324" y2="108"></line><line x1="378" y1="54" x2="324" y2="108"></line><line x1="432" y1="54" x2="378" y2="108"></line><line x1="432" y1="54" x2="486" y2="108"></line><line x1="486" y1="54" x2="540" y2="108"></line><line x1="594" y1="54" x2="540" y2="108"></line><line x1="648" y1="54" x2="594" y2="108"></line><line x1="702" y1="54" x2="648" y2="108"></line><line x1="756" y1="54" x2="702" y2="108"></line><line x1="810" y1="54" x2="756" y2="108"></line><line x1="0" y1="108" x2="54" y2="162"></line><line x1="108" y1="108" x2="54" y2="162"></line><line x1="162" y1="108" x2="108" y2="162"></line><line x1="216" y1="108" x2="162" y2="162"></line><line x1="216" y1="108" x2="270" y2="162"></line><line x1="324" y1="108" x2="270" y2="162"></line><line x1="378" y1="108" x2="324" y2="162"></line><line x1="378" y1="108" x2="432" y2="162"></line><line x1="432" y1="108" x2="486" y2="162"></line><line x1="486" y1="108" x2="540" y2="162"></line><line x1="594" y1="108" x2="540" y2="162"></line><line x1="648" y1="108" x2="594" y2="162"></line><line x1="648" y1="108" x2="702" y2="162"></line><line x1="702" y1="108" x2="756" y2="162"></line><line x1="810" y1="108" x2="756" y2="162"></line><line x1="54" y1="162" x2="0" y2="216"></line><line x1="108" y1="162" x2="54" y2="216"></line><line x1="108" y1="162" x2="162" y2="216"></line><line x1="162" y1="162" x2="216" y2="216"></line><line x1="270" y1="162" x2="216" y2="216"></line><line x1="324" y1="162" x2="270" y2="216"></line><line x1="324" y1="162" x2="378" y2="216"></line><line x1="378" y1="162" x2="432" y2="216"></line><line x1="432" y1="162" x2="486" y2="216"></line><line x1="486" y1="162" x2="540" y2="216"></line><line x1="594" y1="162" x2="540" y2="216"></line><line x1="648" y1="162" x2="594" y2="216"></line><line x1="702" y1="162" x2="648" y2="216"></line><line x1="756" y1="162" x2="702" y2="216"></line><line x1="756" y1="162" x2="810" y2="216"></line><line x1="0" y1="216" x2="54" y2="270"></line><line x1="54" y1="216" x2="108" y2="270"></line><line x1="162" y1="216" x2="108" y2="270"></line><line x1="162" y1="216" x2="216" y2="270"></line><line x1="216" y1="216" x2="270" y2="270"></line><line x1="270" y1="216" x2="324" y2="270"></line><line x1="378" y1="216" x2="324" y2="270"></line><line x1="378" y1="216" x2="432" y2="270"></line><line x1="486" y1="216" x2="432" y2="270"></line><line x1="540" y1="216" x2="486" y2="270"></line><line x1="540" y1="216" x2="594" y2="270"></line><line x1="594" y1="216" x2="648" y2="270"></line><line x1="702" y1="216" x2="648" y2="270"></line><line x1="702" y1="216" x2="756" y2="270"></line><line x1="810" y1="216" x2="756" y2="270"></line><line x1="54" y1="270" x2="0" y2="324"></line><line x1="54" y1="270" x2="108" y2="324"></line><line x1="162" y1="270" x2="108" y2="324"></line><line x1="162" y1="270" x2="216" y2="324"></line><line x1="216" y1="270" x2="270" y2="324"></line><line x1="270" y1="270" x2="324" y2="324"></line><line x1="324" y1="270" x2="378" y2="324"></line><line x1="432" y1="270" x2="378" y2="324"></line><line x1="486" y1="270" x2="432" y2="324"></line><line x1="486" y1="270" x2="540" y2="324"></line><line x1="594" y1="270" x2="540" y2="324"></line><line x1="648" y1="270" x2="594" y2="324"></line><line x1="702" y1="270" x2="648" y2="324"></line><line x1="756" y1="270" x2="702" y2="324"></line><line x1="756" y1="270" x2="810" y2="324"></line><line x1="54" y1="324" x2="0" y2="378"></line><line x1="108" y1="324" x2="54" y2="378"></line><line x1="162" y1="324" x2="108" y2="378"></line><line x1="216" y1="324" x2="162" y2="378"></line><line x1="216" y1="324" x2="270" y2="378"></line><line x1="270" y1="324" x2="324" y2="378"></line><line x1="324" y1="324" x2="378" y2="378"></line><line x1="378" y1="324" x2="432" y2="378"></line><line x1="486" y1="324" x2="432" y2="378"></line><line x1="540" y1="324" x2="486" y2="378"></line><line x1="594" y1="324" x2="540" y2="378"></line><line x1="594" y1="324" x2="648" y2="378"></line><line x1="702" y1="324" x2="648" y2="378"></line><line x1="702" y1="324" x2="756" y2="378"></line><line x1="756" y1="324" x2="810" y2="378"></line><line x1="54" y1="378" x2="0" y2="432"></line><line x1="54" y1="378" x2="108" y2="432"></line><line x1="108" y1="378" x2="162" y2="432"></line><line x1="162" y1="378" x2="216" y2="432"></line><line x1="270" y1="378" x2="216" y2="432"></line><line x1="324" y1="378" x2="270" y2="432"></line><line x1="324" y1="378" x2="378" y2="432"></line><line x1="432" y1="378" x2="378" y2="432"></line><line x1="432" y1="378" x2="486" y2="432"></line><line x1="540" y1="378" x2="486" y2="432"></line><line x1="594" y1="378" x2="540" y2="432"></line><line x1="648" y1="378" x2="594" y2="432"></line><line x1="648" y1="378" x2="702" y2="432"></line><line x1="756" y1="378" x2="702" y2="432"></line><line x1="810" y1="378" x2="756" y2="432"></line><line x1="0" y1="432" x2="54" y2="486"></line><line x1="54" y1="432" x2="108" y2="486"></line><line x1="108" y1="432" x2="162" y2="486"></line><line x1="216" y1="432" x2="162" y2="486"></line><line x1="270" y1="432" x2="216" y2="486"></line><line x1="324" y1="432" x2="270" y2="486"></line><line x1="378" y1="432" x2="324" y2="486"></line><line x1="432" y1="432" x2="378" y2="486"></line><line x1="486" y1="432" x2="432" y2="486"></line><line x1="486" y1="432" x2="540" y2="486"></line><line x1="540" y1="432" x2="594" y2="486"></line><line x1="594" y1="432" x2="648" y2="486"></line><line x1="702" y1="432" x2="648" y2="486"></line><line x1="756" y1="432" x2="702" y2="486"></line><line x1="756" y1="432" x2="810" y2="486"></line><line x1="0" y1="486" x2="54" y2="540"></line><line x1="54" y1="486" x2="108" y2="540"></line><line x1="162" y1="486" x2="108" y2="540"></line><line x1="162" y1="486" x2="216" y2="540"></line><line x1="270" y1="486" x2="216" y2="540"></line><line x1="270" y1="486" x2="324" y2="540"></line><line x1="324" y1="486" x2="378" y2="540"></line><line x1="378" y1="486" x2="432" y2="540"></line><line x1="486" y1="486" x2="432" y2="540"></line><line x1="540" y1="486" x2="486" y2="540"></line><line x1="540" y1="486" x2="594" y2="540"></line><line x1="648" y1="486" x2="594" y2="540"></line><line x1="702" y1="486" x2="648" y2="540"></line><line x1="756" y1="486" x2="702" y2="540"></line><line x1="810" y1="486" x2="756" y2="540"></line><line x1="0" y1="540" x2="54" y2="594"></line><line x1="54" y1="540" x2="108" y2="594"></line><line x1="162" y1="540" x2="108" y2="594"></line><line x1="162" y1="540" x2="216" y2="594"></line><line x1="216" y1="540" x2="270" y2="594"></line><line x1="270" y1="540" x2="324" y2="594"></line><line x1="378" y1="540" x2="324" y2="594"></line><line x1="378" y1="540" x2="432" y2="594"></line><line x1="432" y1="540" x2="486" y2="594"></line><line x1="540" y1="540" x2="486" y2="594"></line><line x1="594" y1="540" x2="540" y2="594"></line><line x1="594" y1="540" x2="648" y2="594"></line><line x1="702" y1="540" x2="648" y2="594"></line><line x1="702" y1="540" x2="756" y2="594"></line><line x1="810" y1="540" x2="756" y2="594"></line><line x1="54" y1="594" x2="0" y2="648"></line><line x1="108" y1="594" x2="54" y2="648"></line><line x1="108" y1="594" x2="162" y2="648"></line><line x1="162" y1="594" x2="216" y2="648"></line><line x1="270" y1="594" x2="216" y2="648"></line><line x1="270" y1="594" x2="324" y2="648"></line><line x1="324" y1="594" x2="378" y2="648"></line><line x1="378" y1="594" x2="432" y2="648"></line><line x1="432" y1="594" x2="486" y2="648"></line><line x1="486" y1="594" x2="540" y2="648"></line><line x1="594" y1="594" x2="540" y2="648"></line><line x1="594" y1="594" x2="648" y2="648"></line><line x1="702" y1="594" x2="648" y2="648"></line><line x1="702" y1="594" x2="756" y2="648"></line><line x1="810" y1="594" x2="756" y2="648"></line><line x1="54" y1="648" x2="0" y2="702"></line><line x1="54" y1="648" x2="108" y2="702"></line><line x1="162" y1="648" x2="108" y2="702"></line><line x1="216" y1="648" x2="162" y2="702"></line><line x1="270" y1="648" x2="216" y2="702"></line><line x1="324" y1="648" x2="270" y2="702"></line><line x1="378" y1="648" x2="324" y2="702"></line><line x1="378" y1="648" x2="432" y2="702"></line><line x1="486" y1="648" x2="432" y2="702"></line><line x1="486" y1="648" x2="540" y2="702"></line><line x1="540" y1="648" x2="594" y2="702"></line><line x1="594" y1="648" x2="648" y2="702"></line><line x1="648" y1="648" x2="702" y2="702"></line><line x1="756" y1="648" x2="702" y2="702"></line><line x1="810" y1="648" x2="756" y2="702"></line><line x1="0" y1="702" x2="54" y2="756"></line><line x1="108" y1="702" x2="54" y2="756"></line><line x1="108" y1="702" x2="162" y2="756"></line><line x1="162" y1="702" x2="216" y2="756"></line><line x1="270" y1="702" x2="216" y2="756"></line><line x1="324" y1="702" x2="270" y2="756"></line><line x1="378" y1="702" x2="324" y2="756"></line><line x1="432" y1="702" x2="378" y2="756"></line><line x1="432" y1="702" x2="486" y2="756"></line><line x1="486" y1="702" x2="540" y2="756"></line><line x1="594" y1="702" x2="540" y2="756"></line><line x1="648" y1="702" x2="594" y2="756"></line><line x1="702" y1="702" x2="648" y2="756"></line><line x1="702" y1="702" x2="756" y2="756"></line><line x1="810" y1="702" x2="756" y2="756"></line><line x1="0" y1="756" x2="54" y2="810"></line><line x1="108" y1="756" x2="54" y2="810"></line><line x1="108" y1="756" x2="162" y2="810"></line><line x1="162" y1="756" x2="216" y2="810"></line><line x1="270" y1="756" x2="216" y2="810"></line><line x1="324" y1="756" x2="270" y2="810"></line><line x1="324" y1="756" x2="378" y2="810"></line><line x1="432" y1="756" x2="378" y2="810"></line><line x1="486" y1="756" x2="432" y2="810"></line><line x1="486" y1="756" x2="540" y2="810"></line><line x1="594" y1="756" x2="540" y2="810"></line><line x1="594" y1="756" x2="648" y2="810"></line><line x1="648" y1="756" x2="702" y2="810"></line><line x1="702" y1="756" x2="756" y2="810"></line><line x1="756" y1="756" x2="810" y2="810"></line></g></svg>